<svg width="1440" height="522" viewBox="0 0 1440 522" fill="none" xmlns="http://www.w3.org/2000/svg">
<path d="M0 510.984V495.61V383.09L1440 371.162V412.261C1440 412.261 1318.47 405.707 1237.5 426.667C1088.55 465.224 1142.75 497.322 981.773 510.984C793.5 526.962 732.371 479.63 535.918 462.258C390.44 449.394 0 510.984 0 510.984Z" fill="#2391E6" fill-opacity="0.49"/>
<path d="M0 522V475.817V355.909L1440 343.198V383.873V435.565C1440 435.565 1341.91 408.186 1257.5 409.719C1095.64 412.659 1140.48 473.121 979.5 487.68C791.227 504.707 680.973 443.615 490.34 443.615C344.089 443.615 0 522 0 522Z" fill="#2391E6" fill-opacity="0.81"/>
<path d="M0 437.683V0H1440V414.38C1440 414.38 1352.16 378.478 1265.14 378.789C1134.67 379.255 1024.48 466.793 894.363 474.969C717.998 486.052 622.651 415.869 445.929 421.583C267.698 427.346 0 505.052 0 505.052V437.683Z" fill="#2391E6"/>
<ellipse cx="316.701" cy="252.95" rx="14.8454" ry="12.2873" fill="#2391E6"/>
<rect width="352.39" height="169.962" transform="matrix(0.892725 -0.450602 0.56708 0.823663 191.01 293.524)" fill="#1F8BDE"/>
<rect width="853.669" height="29.0558" transform="matrix(-0.961708 0.274076 -0.362316 -0.932055 1236.22 173.022)" fill="#1F8BDE"/>
<ellipse cx="841.237" cy="380.06" rx="113.814" ry="90.2484" fill="#1F8BDE"/>
<line y1="-5.5" x2="116.615" y2="-5.5" transform="matrix(0.560132 0.828403 -0.895959 0.444137 231.588 299.133)" stroke="#2391E6" stroke-width="11"/>
<line y1="-5.5" x2="116.615" y2="-5.5" transform="matrix(0.560132 0.828403 -0.895959 0.444137 321.649 251.679)" stroke="#2391E6" stroke-width="11"/>
<line y1="-5.5" x2="116.615" y2="-5.5" transform="matrix(0.560132 0.828403 -0.895959 0.444137 411.711 208.461)" stroke="#2391E6" stroke-width="11"/>
<line y1="-5.5" x2="116.615" y2="-5.5" transform="matrix(0.560132 0.828403 -0.895959 0.444137 276.124 274.558)" stroke="#2391E6" stroke-width="11"/>
<line y1="-5.5" x2="116.615" y2="-5.5" transform="matrix(0.560132 0.828403 -0.895959 0.444137 366.186 227.104)" stroke="#2391E6" stroke-width="11"/>
<line y1="-5.5" x2="116.615" y2="-5.5" transform="matrix(0.560132 0.828403 -0.895959 0.444137 456.247 183.886)" stroke="#2391E6" stroke-width="11"/>
<line y1="-5.5" x2="116.615" y2="-5.5" transform="matrix(0.560132 0.828403 -0.895959 0.444137 256.33 287.27)" stroke="#2391E6" stroke-width="11"/>
<line y1="-5.5" x2="116.615" y2="-5.5" transform="matrix(0.560132 0.828403 -0.895959 0.444137 346.392 239.815)" stroke="#2391E6" stroke-width="11"/>
<line y1="-5.5" x2="116.615" y2="-5.5" transform="matrix(0.560132 0.828403 -0.895959 0.444137 436.454 196.597)" stroke="#2391E6" stroke-width="11"/>
<line y1="-5.5" x2="116.615" y2="-5.5" transform="matrix(0.560132 0.828403 -0.895959 0.444137 300.866 262.695)" stroke="#2391E6" stroke-width="11"/>
<line y1="-5.5" x2="116.615" y2="-5.5" transform="matrix(0.560132 0.828403 -0.895959 0.444137 390.928 215.24)" stroke="#2391E6" stroke-width="11"/>
<line y1="-5.5" x2="116.615" y2="-5.5" transform="matrix(0.560132 0.828403 -0.895959 0.444137 480.99 172.023)" stroke="#2391E6" stroke-width="11"/>
<rect x="1132" y="48" width="146" height="97.8207" fill="#1F8BDE"/>
<rect x="1137" y="51.9128" width="135" height="89.0168" fill="#1A7ECC"/>
<path d="M1162.05 70.5973C1162.05 71.6552 1161.87 72.4414 1161.51 72.9557C1161.15 73.47 1160.58 73.7272 1159.81 73.7272C1159.05 73.7272 1158.49 73.4765 1158.13 72.9752C1157.76 72.4707 1157.57 71.7187 1157.56 70.7194V69.5133C1157.56 68.4684 1157.74 67.692 1158.1 67.1842C1158.46 66.6764 1159.03 66.4225 1159.8 66.4225C1160.57 66.4225 1161.13 66.6683 1161.49 67.1598C1161.85 67.6481 1162.04 68.4033 1162.05 69.4254V70.5973ZM1161.15 69.3619C1161.15 68.597 1161.04 68.0403 1160.82 67.692C1160.61 67.3405 1160.27 67.1647 1159.8 67.1647C1159.34 67.1647 1159 67.3388 1158.79 67.6871C1158.58 68.0354 1158.47 68.5709 1158.46 69.2936V70.7389C1158.46 71.5071 1158.58 72.0752 1158.8 72.443C1159.02 72.8076 1159.36 72.9899 1159.81 72.9899C1160.26 72.9899 1160.59 72.8173 1160.8 72.4723C1161.02 72.1272 1161.14 71.5836 1161.15 70.8414V69.3619ZM1166.17 73.6295H1165.27V67.609L1163.45 68.278V67.4576L1166.03 66.486H1166.17V73.6295ZM1171.79 73.6295H1170.88V67.609L1169.06 68.278V67.4576L1171.65 66.486H1171.79V73.6295ZM1178.89 70.5973C1178.89 71.6552 1178.71 72.4414 1178.35 72.9557C1177.99 73.47 1177.43 73.7272 1176.66 73.7272C1175.9 73.7272 1175.34 73.4765 1174.97 72.9752C1174.61 72.4707 1174.42 71.7187 1174.41 70.7194V69.5133C1174.41 68.4684 1174.59 67.692 1174.95 67.1842C1175.31 66.6764 1175.88 66.4225 1176.65 66.4225C1177.41 66.4225 1177.98 66.6683 1178.34 67.1598C1178.7 67.6481 1178.88 68.4033 1178.89 69.4254V70.5973ZM1177.99 69.3619C1177.99 68.597 1177.88 68.0403 1177.67 67.692C1177.45 67.3405 1177.11 67.1647 1176.65 67.1647C1176.19 67.1647 1175.85 67.3388 1175.64 67.6871C1175.43 68.0354 1175.32 68.5709 1175.31 69.2936V70.7389C1175.31 71.5071 1175.42 72.0752 1175.64 72.443C1175.87 72.8076 1176.21 72.9899 1176.66 72.9899C1177.1 72.9899 1177.43 72.8173 1177.65 72.4723C1177.87 72.1272 1177.98 71.5836 1177.99 70.8414V69.3619ZM1184.51 70.5973C1184.51 71.6552 1184.33 72.4414 1183.97 72.9557C1183.61 73.47 1183.04 73.7272 1182.27 73.7272C1181.51 73.7272 1180.95 73.4765 1180.59 72.9752C1180.22 72.4707 1180.04 71.7187 1180.02 70.7194V69.5133C1180.02 68.4684 1180.2 67.692 1180.56 67.1842C1180.93 66.6764 1181.49 66.4225 1182.26 66.4225C1183.03 66.4225 1183.59 66.6683 1183.95 67.1598C1184.31 67.6481 1184.5 68.4033 1184.51 69.4254V70.5973ZM1183.61 69.3619C1183.61 68.597 1183.5 68.0403 1183.28 67.692C1183.07 67.3405 1182.73 67.1647 1182.26 67.1647C1181.8 67.1647 1181.46 67.3388 1181.25 67.6871C1181.04 68.0354 1180.93 68.5709 1180.93 69.2936V70.7389C1180.93 71.5071 1181.04 72.0752 1181.26 72.443C1181.48 72.8076 1181.82 72.9899 1182.27 72.9899C1182.72 72.9899 1183.05 72.8173 1183.26 72.4723C1183.48 72.1272 1183.6 71.5836 1183.61 70.8414V69.3619ZM1188.64 73.6295H1187.73V67.609L1185.91 68.278V67.4576L1188.49 66.486H1188.64V73.6295ZM1195.74 70.5973C1195.74 71.6552 1195.56 72.4414 1195.2 72.9557C1194.84 73.47 1194.27 73.7272 1193.5 73.7272C1192.75 73.7272 1192.18 73.4765 1191.82 72.9752C1191.45 72.4707 1191.27 71.7187 1191.25 70.7194V69.5133C1191.25 68.4684 1191.43 67.692 1191.79 67.1842C1192.16 66.6764 1192.72 66.4225 1193.49 66.4225C1194.26 66.4225 1194.82 66.6683 1195.18 67.1598C1195.54 67.6481 1195.73 68.4033 1195.74 69.4254V70.5973ZM1194.84 69.3619C1194.84 68.597 1194.73 68.0403 1194.51 67.692C1194.3 67.3405 1193.96 67.1647 1193.49 67.1647C1193.03 67.1647 1192.69 67.3388 1192.48 67.6871C1192.27 68.0354 1192.16 68.5709 1192.16 69.2936V70.7389C1192.16 71.5071 1192.27 72.0752 1192.49 72.443C1192.71 72.8076 1193.05 72.9899 1193.5 72.9899C1193.95 72.9899 1194.28 72.8173 1194.5 72.4723C1194.71 72.1272 1194.83 71.5836 1194.84 70.8414V69.3619ZM1201.36 70.5973C1201.36 71.6552 1201.17 72.4414 1200.81 72.9557C1200.45 73.47 1199.89 73.7272 1199.12 73.7272C1198.36 73.7272 1197.8 73.4765 1197.43 72.9752C1197.07 72.4707 1196.88 71.7187 1196.87 70.7194V69.5133C1196.87 68.4684 1197.05 67.692 1197.41 67.1842C1197.77 66.6764 1198.34 66.4225 1199.11 66.4225C1199.87 66.4225 1200.44 66.6683 1200.8 67.1598C1201.16 67.6481 1201.35 68.4033 1201.36 69.4254V70.5973ZM1200.45 69.3619C1200.45 68.597 1200.34 68.0403 1200.13 67.692C1199.92 67.3405 1199.57 67.1647 1199.11 67.1647C1198.65 67.1647 1198.31 67.3388 1198.1 67.6871C1197.89 68.0354 1197.78 68.5709 1197.77 69.2936V70.7389C1197.77 71.5071 1197.88 72.0752 1198.1 72.443C1198.33 72.8076 1198.67 72.9899 1199.12 72.9899C1199.57 72.9899 1199.9 72.8173 1200.11 72.4723C1200.33 72.1272 1200.44 71.5836 1200.45 70.8414V69.3619ZM1209.45 70.5973C1209.45 71.6552 1209.27 72.4414 1208.91 72.9557C1208.55 73.47 1207.98 73.7272 1207.21 73.7272C1206.46 73.7272 1205.89 73.4765 1205.53 72.9752C1205.17 72.4707 1204.98 71.7187 1204.96 70.7194V69.5133C1204.96 68.4684 1205.14 67.692 1205.51 67.1842C1205.87 66.6764 1206.43 66.4225 1207.21 66.4225C1207.97 66.4225 1208.53 66.6683 1208.89 67.1598C1209.26 67.6481 1209.44 68.4033 1209.45 69.4254V70.5973ZM1208.55 69.3619C1208.55 68.597 1208.44 68.0403 1208.23 67.692C1208.01 67.3405 1207.67 67.1647 1207.21 67.1647C1206.74 67.1647 1206.41 67.3388 1206.19 67.6871C1205.98 68.0354 1205.87 68.5709 1205.87 69.2936V70.7389C1205.87 71.5071 1205.98 72.0752 1206.2 72.443C1206.42 72.8076 1206.76 72.9899 1207.21 72.9899C1207.66 72.9899 1207.99 72.8173 1208.21 72.4723C1208.42 72.1272 1208.54 71.5836 1208.55 70.8414V69.3619ZM1213.58 73.6295H1212.67V67.609L1210.85 68.278V67.4576L1213.44 66.486H1213.58V73.6295ZM1219.19 73.6295H1218.28V67.609L1216.46 68.278V67.4576L1219.05 66.486H1219.19V73.6295ZM1226.3 70.5973C1226.3 71.6552 1226.12 72.4414 1225.75 72.9557C1225.39 73.47 1224.83 73.7272 1224.06 73.7272C1223.3 73.7272 1222.74 73.4765 1222.38 72.9752C1222.01 72.4707 1221.82 71.7187 1221.81 70.7194V69.5133C1221.81 68.4684 1221.99 67.692 1222.35 67.1842C1222.71 66.6764 1223.28 66.4225 1224.05 66.4225C1224.82 66.4225 1225.38 66.6683 1225.74 67.1598C1226.1 67.6481 1226.29 68.4033 1226.3 69.4254V70.5973ZM1225.39 69.3619C1225.39 68.597 1225.29 68.0403 1225.07 67.692C1224.86 67.3405 1224.52 67.1647 1224.05 67.1647C1223.59 67.1647 1223.25 67.3388 1223.04 67.6871C1222.83 68.0354 1222.72 68.5709 1222.71 69.2936V70.7389C1222.71 71.5071 1222.82 72.0752 1223.04 72.443C1223.27 72.8076 1223.61 72.9899 1224.06 72.9899C1224.51 72.9899 1224.84 72.8173 1225.05 72.4723C1225.27 72.1272 1225.38 71.5836 1225.39 70.8414V69.3619ZM1230.42 73.6295H1229.51V67.609L1227.69 68.278V67.4576L1230.28 66.486H1230.42V73.6295ZM1236.04 73.6295H1235.13V67.609L1233.31 68.278V67.4576L1235.9 66.486H1236.04V73.6295ZM1241.65 73.6295H1240.75V67.609L1238.92 68.278V67.4576L1241.51 66.486H1241.65V73.6295ZM1247.27 73.6295H1246.36V67.609L1244.54 68.278V67.4576L1247.13 66.486H1247.27V73.6295ZM1162.05 82.5973C1162.05 83.6552 1161.87 84.4414 1161.51 84.9557C1161.15 85.47 1160.58 85.7272 1159.81 85.7272C1159.05 85.7272 1158.49 85.4765 1158.13 84.9752C1157.76 84.4707 1157.57 83.7187 1157.56 82.7194V81.5133C1157.56 80.4684 1157.74 79.692 1158.1 79.1842C1158.46 78.6764 1159.03 78.4225 1159.8 78.4225C1160.57 78.4225 1161.13 78.6683 1161.49 79.1598C1161.85 79.6481 1162.04 80.4033 1162.05 81.4254V82.5973ZM1161.15 81.3619C1161.15 80.597 1161.04 80.0403 1160.82 79.692C1160.61 79.3405 1160.27 79.1647 1159.8 79.1647C1159.34 79.1647 1159 79.3388 1158.79 79.6871C1158.58 80.0354 1158.47 80.5709 1158.46 81.2936V82.7389C1158.46 83.5071 1158.58 84.0752 1158.8 84.443C1159.02 84.8076 1159.36 84.9899 1159.81 84.9899C1160.26 84.9899 1160.59 84.8173 1160.8 84.4723C1161.02 84.1272 1161.14 83.5836 1161.15 82.8414V81.3619ZM1166.17 85.6295H1165.27V79.609L1163.45 80.278V79.4576L1166.03 78.486H1166.17V85.6295ZM1171.79 85.6295H1170.88V79.609L1169.06 80.278V79.4576L1171.65 78.486H1171.79V85.6295ZM1178.89 82.5973C1178.89 83.6552 1178.71 84.4414 1178.35 84.9557C1177.99 85.47 1177.43 85.7272 1176.66 85.7272C1175.9 85.7272 1175.34 85.4765 1174.97 84.9752C1174.61 84.4707 1174.42 83.7187 1174.41 82.7194V81.5133C1174.41 80.4684 1174.59 79.692 1174.95 79.1842C1175.31 78.6764 1175.88 78.4225 1176.65 78.4225C1177.41 78.4225 1177.98 78.6683 1178.34 79.1598C1178.7 79.6481 1178.88 80.4033 1178.89 81.4254V82.5973ZM1177.99 81.3619C1177.99 80.597 1177.88 80.0403 1177.67 79.692C1177.45 79.3405 1177.11 79.1647 1176.65 79.1647C1176.19 79.1647 1175.85 79.3388 1175.64 79.6871C1175.43 80.0354 1175.32 80.5709 1175.31 81.2936V82.7389C1175.31 83.5071 1175.42 84.0752 1175.64 84.443C1175.87 84.8076 1176.21 84.9899 1176.66 84.9899C1177.1 84.9899 1177.43 84.8173 1177.65 84.4723C1177.87 84.1272 1177.98 83.5836 1177.99 82.8414V81.3619ZM1184.51 82.5973C1184.51 83.6552 1184.33 84.4414 1183.97 84.9557C1183.61 85.47 1183.04 85.7272 1182.27 85.7272C1181.51 85.7272 1180.95 85.4765 1180.59 84.9752C1180.22 84.4707 1180.04 83.7187 1180.02 82.7194V81.5133C1180.02 80.4684 1180.2 79.692 1180.56 79.1842C1180.93 78.6764 1181.49 78.4225 1182.26 78.4225C1183.03 78.4225 1183.59 78.6683 1183.95 79.1598C1184.31 79.6481 1184.5 80.4033 1184.51 81.4254V82.5973ZM1183.61 81.3619C1183.61 80.597 1183.5 80.0403 1183.28 79.692C1183.07 79.3405 1182.73 79.1647 1182.26 79.1647C1181.8 79.1647 1181.46 79.3388 1181.25 79.6871C1181.04 80.0354 1180.93 80.5709 1180.93 81.2936V82.7389C1180.93 83.5071 1181.04 84.0752 1181.26 84.443C1181.48 84.8076 1181.82 84.9899 1182.27 84.9899C1182.72 84.9899 1183.05 84.8173 1183.26 84.4723C1183.48 84.1272 1183.6 83.5836 1183.61 82.8414V81.3619ZM1190.12 82.5973C1190.12 83.6552 1189.94 84.4414 1189.58 84.9557C1189.22 85.47 1188.66 85.7272 1187.89 85.7272C1187.13 85.7272 1186.57 85.4765 1186.2 84.9752C1185.84 84.4707 1185.65 83.7187 1185.64 82.7194V81.5133C1185.64 80.4684 1185.82 79.692 1186.18 79.1842C1186.54 78.6764 1187.11 78.4225 1187.88 78.4225C1188.64 78.4225 1189.21 78.6683 1189.57 79.1598C1189.93 79.6481 1190.12 80.4033 1190.12 81.4254V82.5973ZM1189.22 81.3619C1189.22 80.597 1189.11 80.0403 1188.9 79.692C1188.68 79.3405 1188.34 79.1647 1187.88 79.1647C1187.42 79.1647 1187.08 79.3388 1186.87 79.6871C1186.66 80.0354 1186.55 80.5709 1186.54 81.2936V82.7389C1186.54 83.5071 1186.65 84.0752 1186.87 84.443C1187.1 84.8076 1187.44 84.9899 1187.89 84.9899C1188.33 84.9899 1188.67 84.8173 1188.88 84.4723C1189.1 84.1272 1189.21 83.5836 1189.22 82.8414V81.3619ZM1194.25 85.6295H1193.34V79.609L1191.52 80.278V79.4576L1194.11 78.486H1194.25V85.6295ZM1199.87 85.6295H1198.96V79.609L1197.14 80.278V79.4576L1199.72 78.486H1199.87V85.6295ZM1209.45 82.5973C1209.45 83.6552 1209.27 84.4414 1208.91 84.9557C1208.55 85.47 1207.98 85.7272 1207.21 85.7272C1206.46 85.7272 1205.89 85.4765 1205.53 84.9752C1205.17 84.4707 1204.98 83.7187 1204.96 82.7194V81.5133C1204.96 80.4684 1205.14 79.692 1205.51 79.1842C1205.87 78.6764 1206.43 78.4225 1207.21 78.4225C1207.97 78.4225 1208.53 78.6683 1208.89 79.1598C1209.26 79.6481 1209.44 80.4033 1209.45 81.4254V82.5973ZM1208.55 81.3619C1208.55 80.597 1208.44 80.0403 1208.23 79.692C1208.01 79.3405 1207.67 79.1647 1207.21 79.1647C1206.74 79.1647 1206.41 79.3388 1206.19 79.6871C1205.98 80.0354 1205.87 80.5709 1205.87 81.2936V82.7389C1205.87 83.5071 1205.98 84.0752 1206.2 84.443C1206.42 84.8076 1206.76 84.9899 1207.21 84.9899C1207.66 84.9899 1207.99 84.8173 1208.21 84.4723C1208.42 84.1272 1208.54 83.5836 1208.55 82.8414V81.3619ZM1213.58 85.6295H1212.67V79.609L1210.85 80.278V79.4576L1213.44 78.486H1213.58V85.6295ZM1219.19 85.6295H1218.28V79.609L1216.46 80.278V79.4576L1219.05 78.486H1219.19V85.6295ZM1226.3 82.5973C1226.3 83.6552 1226.12 84.4414 1225.75 84.9557C1225.39 85.47 1224.83 85.7272 1224.06 85.7272C1223.3 85.7272 1222.74 85.4765 1222.38 84.9752C1222.01 84.4707 1221.82 83.7187 1221.81 82.7194V81.5133C1221.81 80.4684 1221.99 79.692 1222.35 79.1842C1222.71 78.6764 1223.28 78.4225 1224.05 78.4225C1224.82 78.4225 1225.38 78.6683 1225.74 79.1598C1226.1 79.6481 1226.29 80.4033 1226.3 81.4254V82.5973ZM1225.39 81.3619C1225.39 80.597 1225.29 80.0403 1225.07 79.692C1224.86 79.3405 1224.52 79.1647 1224.05 79.1647C1223.59 79.1647 1223.25 79.3388 1223.04 79.6871C1222.83 80.0354 1222.72 80.5709 1222.71 81.2936V82.7389C1222.71 83.5071 1222.82 84.0752 1223.04 84.443C1223.27 84.8076 1223.61 84.9899 1224.06 84.9899C1224.51 84.9899 1224.84 84.8173 1225.05 84.4723C1225.27 84.1272 1225.38 83.5836 1225.39 82.8414V81.3619ZM1230.42 85.6295H1229.51V79.609L1227.69 80.278V79.4576L1230.28 78.486H1230.42V85.6295ZM1237.53 82.5973C1237.53 83.6552 1237.35 84.4414 1236.99 84.9557C1236.62 85.47 1236.06 85.7272 1235.29 85.7272C1234.53 85.7272 1233.97 85.4765 1233.61 84.9752C1233.24 84.4707 1233.05 83.7187 1233.04 82.7194V81.5133C1233.04 80.4684 1233.22 79.692 1233.58 79.1842C1233.94 78.6764 1234.51 78.4225 1235.28 78.4225C1236.05 78.4225 1236.61 78.6683 1236.97 79.1598C1237.33 79.6481 1237.52 80.4033 1237.53 81.4254V82.5973ZM1236.62 81.3619C1236.62 80.597 1236.52 80.0403 1236.3 79.692C1236.09 79.3405 1235.75 79.1647 1235.28 79.1647C1234.82 79.1647 1234.48 79.3388 1234.27 79.6871C1234.06 80.0354 1233.95 80.5709 1233.94 81.2936V82.7389C1233.94 83.5071 1234.05 84.0752 1234.28 84.443C1234.5 84.8076 1234.84 84.9899 1235.29 84.9899C1235.74 84.9899 1236.07 84.8173 1236.28 84.4723C1236.5 84.1272 1236.61 83.5836 1236.62 82.8414V81.3619ZM1241.65 85.6295H1240.75V79.609L1238.92 80.278V79.4576L1241.51 78.486H1241.65V85.6295ZM1247.27 85.6295H1246.36V79.609L1244.54 80.278V79.4576L1247.13 78.486H1247.27V85.6295ZM1162.05 94.5973C1162.05 95.6552 1161.87 96.4414 1161.51 96.9557C1161.15 97.47 1160.58 97.7272 1159.81 97.7272C1159.05 97.7272 1158.49 97.4765 1158.13 96.9752C1157.76 96.4707 1157.57 95.7187 1157.56 94.7194V93.5133C1157.56 92.4684 1157.74 91.692 1158.1 91.1842C1158.46 90.6764 1159.03 90.4225 1159.8 90.4225C1160.57 90.4225 1161.13 90.6683 1161.49 91.1598C1161.85 91.6481 1162.04 92.4033 1162.05 93.4254V94.5973ZM1161.15 93.3619C1161.15 92.597 1161.04 92.0403 1160.82 91.692C1160.61 91.3405 1160.27 91.1647 1159.8 91.1647C1159.34 91.1647 1159 91.3388 1158.79 91.6871C1158.58 92.0354 1158.47 92.5709 1158.46 93.2936V94.7389C1158.46 95.5071 1158.58 96.0752 1158.8 96.443C1159.02 96.8076 1159.36 96.9899 1159.81 96.9899C1160.26 96.9899 1160.59 96.8173 1160.8 96.4723C1161.02 96.1272 1161.14 95.5836 1161.15 94.8414V93.3619ZM1166.17 97.6295H1165.27V91.609L1163.45 92.278V91.4576L1166.03 90.486H1166.17V97.6295ZM1171.79 97.6295H1170.88V91.609L1169.06 92.278V91.4576L1171.65 90.486H1171.79V97.6295ZM1178.89 94.5973C1178.89 95.6552 1178.71 96.4414 1178.35 96.9557C1177.99 97.47 1177.43 97.7272 1176.66 97.7272C1175.9 97.7272 1175.34 97.4765 1174.97 96.9752C1174.61 96.4707 1174.42 95.7187 1174.41 94.7194V93.5133C1174.41 92.4684 1174.59 91.692 1174.95 91.1842C1175.31 90.6764 1175.88 90.4225 1176.65 90.4225C1177.41 90.4225 1177.98 90.6683 1178.34 91.1598C1178.7 91.6481 1178.88 92.4033 1178.89 93.4254V94.5973ZM1177.99 93.3619C1177.99 92.597 1177.88 92.0403 1177.67 91.692C1177.45 91.3405 1177.11 91.1647 1176.65 91.1647C1176.19 91.1647 1175.85 91.3388 1175.64 91.6871C1175.43 92.0354 1175.32 92.5709 1175.31 93.2936V94.7389C1175.31 95.5071 1175.42 96.0752 1175.64 96.443C1175.87 96.8076 1176.21 96.9899 1176.66 96.9899C1177.1 96.9899 1177.43 96.8173 1177.65 96.4723C1177.87 96.1272 1177.98 95.5836 1177.99 94.8414V93.3619ZM1184.51 94.5973C1184.51 95.6552 1184.33 96.4414 1183.97 96.9557C1183.61 97.47 1183.04 97.7272 1182.27 97.7272C1181.51 97.7272 1180.95 97.4765 1180.59 96.9752C1180.22 96.4707 1180.04 95.7187 1180.02 94.7194V93.5133C1180.02 92.4684 1180.2 91.692 1180.56 91.1842C1180.93 90.6764 1181.49 90.4225 1182.26 90.4225C1183.03 90.4225 1183.59 90.6683 1183.95 91.1598C1184.31 91.6481 1184.5 92.4033 1184.51 93.4254V94.5973ZM1183.61 93.3619C1183.61 92.597 1183.5 92.0403 1183.28 91.692C1183.07 91.3405 1182.73 91.1647 1182.26 91.1647C1181.8 91.1647 1181.46 91.3388 1181.25 91.6871C1181.04 92.0354 1180.93 92.5709 1180.93 93.2936V94.7389C1180.93 95.5071 1181.04 96.0752 1181.26 96.443C1181.48 96.8076 1181.82 96.9899 1182.27 96.9899C1182.72 96.9899 1183.05 96.8173 1183.26 96.4723C1183.48 96.1272 1183.6 95.5836 1183.61 94.8414V93.3619ZM1188.64 97.6295H1187.73V91.609L1185.91 92.278V91.4576L1188.49 90.486H1188.64V97.6295ZM1195.74 94.5973C1195.74 95.6552 1195.56 96.4414 1195.2 96.9557C1194.84 97.47 1194.27 97.7272 1193.5 97.7272C1192.75 97.7272 1192.18 97.4765 1191.82 96.9752C1191.45 96.4707 1191.27 95.7187 1191.25 94.7194V93.5133C1191.25 92.4684 1191.43 91.692 1191.79 91.1842C1192.16 90.6764 1192.72 90.4225 1193.49 90.4225C1194.26 90.4225 1194.82 90.6683 1195.18 91.1598C1195.54 91.6481 1195.73 92.4033 1195.74 93.4254V94.5973ZM1194.84 93.3619C1194.84 92.597 1194.73 92.0403 1194.51 91.692C1194.3 91.3405 1193.96 91.1647 1193.49 91.1647C1193.03 91.1647 1192.69 91.3388 1192.48 91.6871C1192.27 92.0354 1192.16 92.5709 1192.16 93.2936V94.7389C1192.16 95.5071 1192.27 96.0752 1192.49 96.443C1192.71 96.8076 1193.05 96.9899 1193.5 96.9899C1193.95 96.9899 1194.28 96.8173 1194.5 96.4723C1194.71 96.1272 1194.83 95.5836 1194.84 94.8414V93.3619ZM1199.87 97.6295H1198.96V91.609L1197.14 92.278V91.4576L1199.72 90.486H1199.87V97.6295ZM1209.45 94.5973C1209.45 95.6552 1209.27 96.4414 1208.91 96.9557C1208.55 97.47 1207.98 97.7272 1207.21 97.7272C1206.46 97.7272 1205.89 97.4765 1205.53 96.9752C1205.17 96.4707 1204.98 95.7187 1204.96 94.7194V93.5133C1204.96 92.4684 1205.14 91.692 1205.51 91.1842C1205.87 90.6764 1206.43 90.4225 1207.21 90.4225C1207.97 90.4225 1208.53 90.6683 1208.89 91.1598C1209.26 91.6481 1209.44 92.4033 1209.45 93.4254V94.5973ZM1208.55 93.3619C1208.55 92.597 1208.44 92.0403 1208.23 91.692C1208.01 91.3405 1207.67 91.1647 1207.21 91.1647C1206.74 91.1647 1206.41 91.3388 1206.19 91.6871C1205.98 92.0354 1205.87 92.5709 1205.87 93.2936V94.7389C1205.87 95.5071 1205.98 96.0752 1206.2 96.443C1206.42 96.8076 1206.76 96.9899 1207.21 96.9899C1207.66 96.9899 1207.99 96.8173 1208.21 96.4723C1208.42 96.1272 1208.54 95.5836 1208.55 94.8414V93.3619ZM1213.58 97.6295H1212.67V91.609L1210.85 92.278V91.4576L1213.44 90.486H1213.58V97.6295ZM1219.19 97.6295H1218.28V91.609L1216.46 92.278V91.4576L1219.05 90.486H1219.19V97.6295ZM1224.81 97.6295H1223.9V91.609L1222.08 92.278V91.4576L1224.67 90.486H1224.81V97.6295ZM1231.91 94.5973C1231.91 95.6552 1231.73 96.4414 1231.37 96.9557C1231.01 97.47 1230.44 97.7272 1229.68 97.7272C1228.92 97.7272 1228.36 97.4765 1227.99 96.9752C1227.63 96.4707 1227.44 95.7187 1227.42 94.7194V93.5133C1227.42 92.4684 1227.61 91.692 1227.97 91.1842C1228.33 90.6764 1228.89 90.4225 1229.67 90.4225C1230.43 90.4225 1230.99 90.6683 1231.36 91.1598C1231.72 91.6481 1231.9 92.4033 1231.91 93.4254V94.5973ZM1231.01 93.3619C1231.01 92.597 1230.9 92.0403 1230.69 91.692C1230.47 91.3405 1230.13 91.1647 1229.67 91.1647C1229.2 91.1647 1228.87 91.3388 1228.66 91.6871C1228.44 92.0354 1228.33 92.5709 1228.33 93.2936V94.7389C1228.33 95.5071 1228.44 96.0752 1228.66 96.443C1228.88 96.8076 1229.22 96.9899 1229.68 96.9899C1230.12 96.9899 1230.45 96.8173 1230.67 96.4723C1230.89 96.1272 1231 95.5836 1231.01 94.8414V93.3619ZM1237.53 94.5973C1237.53 95.6552 1237.35 96.4414 1236.99 96.9557C1236.62 97.47 1236.06 97.7272 1235.29 97.7272C1234.53 97.7272 1233.97 97.4765 1233.61 96.9752C1233.24 96.4707 1233.05 95.7187 1233.04 94.7194V93.5133C1233.04 92.4684 1233.22 91.692 1233.58 91.1842C1233.94 90.6764 1234.51 90.4225 1235.28 90.4225C1236.05 90.4225 1236.61 90.6683 1236.97 91.1598C1237.33 91.6481 1237.52 92.4033 1237.53 93.4254V94.5973ZM1236.62 93.3619C1236.62 92.597 1236.52 92.0403 1236.3 91.692C1236.09 91.3405 1235.75 91.1647 1235.28 91.1647C1234.82 91.1647 1234.48 91.3388 1234.27 91.6871C1234.06 92.0354 1233.95 92.5709 1233.94 93.2936V94.7389C1233.94 95.5071 1234.05 96.0752 1234.28 96.443C1234.5 96.8076 1234.84 96.9899 1235.29 96.9899C1235.74 96.9899 1236.07 96.8173 1236.28 96.4723C1236.5 96.1272 1236.61 95.5836 1236.62 94.8414V93.3619ZM1241.65 97.6295H1240.75V91.609L1238.92 92.278V91.4576L1241.51 90.486H1241.65V97.6295ZM1248.76 94.5973C1248.76 95.6552 1248.58 96.4414 1248.22 96.9557C1247.85 97.47 1247.29 97.7272 1246.52 97.7272C1245.76 97.7272 1245.2 97.4765 1244.84 96.9752C1244.47 96.4707 1244.28 95.7187 1244.27 94.7194V93.5133C1244.27 92.4684 1244.45 91.692 1244.81 91.1842C1245.17 90.6764 1245.74 90.4225 1246.51 90.4225C1247.28 90.4225 1247.84 90.6683 1248.2 91.1598C1248.56 91.6481 1248.75 92.4033 1248.76 93.4254V94.5973ZM1247.85 93.3619C1247.85 92.597 1247.75 92.0403 1247.53 91.692C1247.32 91.3405 1246.98 91.1647 1246.51 91.1647C1246.05 91.1647 1245.71 91.3388 1245.5 91.6871C1245.29 92.0354 1245.18 92.5709 1245.17 93.2936V94.7389C1245.17 95.5071 1245.28 96.0752 1245.51 96.443C1245.73 96.8076 1246.07 96.9899 1246.52 96.9899C1246.97 96.9899 1247.3 96.8173 1247.51 96.4723C1247.73 96.1272 1247.84 95.5836 1247.85 94.8414V93.3619ZM1162.05 106.597C1162.05 107.655 1161.87 108.441 1161.51 108.956C1161.15 109.47 1160.58 109.727 1159.81 109.727C1159.05 109.727 1158.49 109.477 1158.13 108.975C1157.76 108.471 1157.57 107.719 1157.56 106.719V105.513C1157.56 104.468 1157.74 103.692 1158.1 103.184C1158.46 102.676 1159.03 102.422 1159.8 102.422C1160.57 102.422 1161.13 102.668 1161.49 103.16C1161.85 103.648 1162.04 104.403 1162.05 105.425V106.597ZM1161.15 105.362C1161.15 104.597 1161.04 104.04 1160.82 103.692C1160.61 103.34 1160.27 103.165 1159.8 103.165C1159.34 103.165 1159 103.339 1158.79 103.687C1158.58 104.035 1158.47 104.571 1158.46 105.294V106.739C1158.46 107.507 1158.58 108.075 1158.8 108.443C1159.02 108.808 1159.36 108.99 1159.81 108.99C1160.26 108.99 1160.59 108.817 1160.8 108.472C1161.02 108.127 1161.14 107.584 1161.15 106.841V105.362ZM1167.66 106.597C1167.66 107.655 1167.48 108.441 1167.12 108.956C1166.76 109.47 1166.2 109.727 1165.43 109.727C1164.67 109.727 1164.11 109.477 1163.74 108.975C1163.38 108.471 1163.19 107.719 1163.18 106.719V105.513C1163.18 104.468 1163.36 103.692 1163.72 103.184C1164.08 102.676 1164.65 102.422 1165.42 102.422C1166.18 102.422 1166.75 102.668 1167.11 103.16C1167.47 103.648 1167.65 104.403 1167.66 105.425V106.597ZM1166.76 105.362C1166.76 104.597 1166.65 104.04 1166.44 103.692C1166.22 103.34 1165.88 103.165 1165.42 103.165C1164.96 103.165 1164.62 103.339 1164.41 103.687C1164.2 104.035 1164.09 104.571 1164.08 105.294V106.739C1164.08 107.507 1164.19 108.075 1164.41 108.443C1164.64 108.808 1164.98 108.99 1165.43 108.99C1165.87 108.99 1166.2 108.817 1166.42 108.472C1166.64 108.127 1166.75 107.584 1166.76 106.841V105.362ZM1171.79 109.63H1170.88V103.609L1169.06 104.278V103.458L1171.65 102.486H1171.79V109.63ZM1178.89 106.597C1178.89 107.655 1178.71 108.441 1178.35 108.956C1177.99 109.47 1177.43 109.727 1176.66 109.727C1175.9 109.727 1175.34 109.477 1174.97 108.975C1174.61 108.471 1174.42 107.719 1174.41 106.719V105.513C1174.41 104.468 1174.59 103.692 1174.95 103.184C1175.31 102.676 1175.88 102.422 1176.65 102.422C1177.41 102.422 1177.98 102.668 1178.34 103.16C1178.7 103.648 1178.88 104.403 1178.89 105.425V106.597ZM1177.99 105.362C1177.99 104.597 1177.88 104.04 1177.67 103.692C1177.45 103.34 1177.11 103.165 1176.65 103.165C1176.19 103.165 1175.85 103.339 1175.64 103.687C1175.43 104.035 1175.32 104.571 1175.31 105.294V106.739C1175.31 107.507 1175.42 108.075 1175.64 108.443C1175.87 108.808 1176.21 108.99 1176.66 108.99C1177.1 108.99 1177.43 108.817 1177.65 108.472C1177.87 108.127 1177.98 107.584 1177.99 106.841V105.362ZM1184.51 106.597C1184.51 107.655 1184.33 108.441 1183.97 108.956C1183.61 109.47 1183.04 109.727 1182.27 109.727C1181.51 109.727 1180.95 109.477 1180.59 108.975C1180.22 108.471 1180.04 107.719 1180.02 106.719V105.513C1180.02 104.468 1180.2 103.692 1180.56 103.184C1180.93 102.676 1181.49 102.422 1182.26 102.422C1183.03 102.422 1183.59 102.668 1183.95 103.16C1184.31 103.648 1184.5 104.403 1184.51 105.425V106.597ZM1183.61 105.362C1183.61 104.597 1183.5 104.04 1183.28 103.692C1183.07 103.34 1182.73 103.165 1182.26 103.165C1181.8 103.165 1181.46 103.339 1181.25 103.687C1181.04 104.035 1180.93 104.571 1180.93 105.294V106.739C1180.93 107.507 1181.04 108.075 1181.26 108.443C1181.48 108.808 1181.82 108.99 1182.27 108.99C1182.72 108.99 1183.05 108.817 1183.26 108.472C1183.48 108.127 1183.6 107.584 1183.61 106.841V105.362ZM1190.12 106.597C1190.12 107.655 1189.94 108.441 1189.58 108.956C1189.22 109.47 1188.66 109.727 1187.89 109.727C1187.13 109.727 1186.57 109.477 1186.2 108.975C1185.84 108.471 1185.65 107.719 1185.64 106.719V105.513C1185.64 104.468 1185.82 103.692 1186.18 103.184C1186.54 102.676 1187.11 102.422 1187.88 102.422C1188.64 102.422 1189.21 102.668 1189.57 103.16C1189.93 103.648 1190.12 104.403 1190.12 105.425V106.597ZM1189.22 105.362C1189.22 104.597 1189.11 104.04 1188.9 103.692C1188.68 103.34 1188.34 103.165 1187.88 103.165C1187.42 103.165 1187.08 103.339 1186.87 103.687C1186.66 104.035 1186.55 104.571 1186.54 105.294V106.739C1186.54 107.507 1186.65 108.075 1186.87 108.443C1187.1 108.808 1187.44 108.99 1187.89 108.99C1188.33 108.99 1188.67 108.817 1188.88 108.472C1189.1 108.127 1189.21 107.584 1189.22 106.841V105.362ZM1195.74 106.597C1195.74 107.655 1195.56 108.441 1195.2 108.956C1194.84 109.47 1194.27 109.727 1193.5 109.727C1192.75 109.727 1192.18 109.477 1191.82 108.975C1191.45 108.471 1191.27 107.719 1191.25 106.719V105.513C1191.25 104.468 1191.43 103.692 1191.79 103.184C1192.16 102.676 1192.72 102.422 1193.49 102.422C1194.26 102.422 1194.82 102.668 1195.18 103.16C1195.54 103.648 1195.73 104.403 1195.74 105.425V106.597ZM1194.84 105.362C1194.84 104.597 1194.73 104.04 1194.51 103.692C1194.3 103.34 1193.96 103.165 1193.49 103.165C1193.03 103.165 1192.69 103.339 1192.48 103.687C1192.27 104.035 1192.16 104.571 1192.16 105.294V106.739C1192.16 107.507 1192.27 108.075 1192.49 108.443C1192.71 108.808 1193.05 108.99 1193.5 108.99C1193.95 108.99 1194.28 108.817 1194.5 108.472C1194.71 108.127 1194.83 107.584 1194.84 106.841V105.362ZM1201.36 106.597C1201.36 107.655 1201.17 108.441 1200.81 108.956C1200.45 109.47 1199.89 109.727 1199.12 109.727C1198.36 109.727 1197.8 109.477 1197.43 108.975C1197.07 108.471 1196.88 107.719 1196.87 106.719V105.513C1196.87 104.468 1197.05 103.692 1197.41 103.184C1197.77 102.676 1198.34 102.422 1199.11 102.422C1199.87 102.422 1200.44 102.668 1200.8 103.16C1201.16 103.648 1201.35 104.403 1201.36 105.425V106.597ZM1200.45 105.362C1200.45 104.597 1200.34 104.04 1200.13 103.692C1199.92 103.34 1199.57 103.165 1199.11 103.165C1198.65 103.165 1198.31 103.339 1198.1 103.687C1197.89 104.035 1197.78 104.571 1197.77 105.294V106.739C1197.77 107.507 1197.88 108.075 1198.1 108.443C1198.33 108.808 1198.67 108.99 1199.12 108.99C1199.57 108.99 1199.9 108.817 1200.11 108.472C1200.33 108.127 1200.44 107.584 1200.45 106.841V105.362ZM1209.45 106.597C1209.45 107.655 1209.27 108.441 1208.91 108.956C1208.55 109.47 1207.98 109.727 1207.21 109.727C1206.46 109.727 1205.89 109.477 1205.53 108.975C1205.17 108.471 1204.98 107.719 1204.96 106.719V105.513C1204.96 104.468 1205.14 103.692 1205.51 103.184C1205.87 102.676 1206.43 102.422 1207.21 102.422C1207.97 102.422 1208.53 102.668 1208.89 103.16C1209.26 103.648 1209.44 104.403 1209.45 105.425V106.597ZM1208.55 105.362C1208.55 104.597 1208.44 104.04 1208.23 103.692C1208.01 103.34 1207.67 103.165 1207.21 103.165C1206.74 103.165 1206.41 103.339 1206.19 103.687C1205.98 104.035 1205.87 104.571 1205.87 105.294V106.739C1205.87 107.507 1205.98 108.075 1206.2 108.443C1206.42 108.808 1206.76 108.99 1207.21 108.99C1207.66 108.99 1207.99 108.817 1208.21 108.472C1208.42 108.127 1208.54 107.584 1208.55 106.841V105.362ZM1213.58 109.63H1212.67V103.609L1210.85 104.278V103.458L1213.44 102.486H1213.58V109.63ZM1219.19 109.63H1218.28V103.609L1216.46 104.278V103.458L1219.05 102.486H1219.19V109.63ZM1226.3 106.597C1226.3 107.655 1226.12 108.441 1225.75 108.956C1225.39 109.47 1224.83 109.727 1224.06 109.727C1223.3 109.727 1222.74 109.477 1222.38 108.975C1222.01 108.471 1221.82 107.719 1221.81 106.719V105.513C1221.81 104.468 1221.99 103.692 1222.35 103.184C1222.71 102.676 1223.28 102.422 1224.05 102.422C1224.82 102.422 1225.38 102.668 1225.74 103.16C1226.1 103.648 1226.29 104.403 1226.3 105.425V106.597ZM1225.39 105.362C1225.39 104.597 1225.29 104.04 1225.07 103.692C1224.86 103.34 1224.52 103.165 1224.05 103.165C1223.59 103.165 1223.25 103.339 1223.04 103.687C1222.83 104.035 1222.72 104.571 1222.71 105.294V106.739C1222.71 107.507 1222.82 108.075 1223.04 108.443C1223.27 108.808 1223.61 108.99 1224.06 108.99C1224.51 108.99 1224.84 108.817 1225.05 108.472C1225.27 108.127 1225.38 107.584 1225.39 106.841V105.362ZM1230.42 109.63H1229.51V103.609L1227.69 104.278V103.458L1230.28 102.486H1230.42V109.63ZM1236.04 109.63H1235.13V103.609L1233.31 104.278V103.458L1235.9 102.486H1236.04V109.63ZM1243.14 106.597C1243.14 107.655 1242.96 108.441 1242.6 108.956C1242.24 109.47 1241.67 109.727 1240.91 109.727C1240.15 109.727 1239.59 109.477 1239.22 108.975C1238.86 108.471 1238.67 107.719 1238.66 106.719V105.513C1238.66 104.468 1238.84 103.692 1239.2 103.184C1239.56 102.676 1240.12 102.422 1240.9 102.422C1241.66 102.422 1242.22 102.668 1242.59 103.16C1242.95 103.648 1243.13 104.403 1243.14 105.425V106.597ZM1242.24 105.362C1242.24 104.597 1242.13 104.04 1241.92 103.692C1241.7 103.34 1241.36 103.165 1240.9 103.165C1240.43 103.165 1240.1 103.339 1239.89 103.687C1239.67 104.035 1239.57 104.571 1239.56 105.294V106.739C1239.56 107.507 1239.67 108.075 1239.89 108.443C1240.12 108.808 1240.45 108.99 1240.91 108.99C1241.35 108.99 1241.68 108.817 1241.9 108.472C1242.12 108.127 1242.23 107.584 1242.24 106.841V105.362ZM1248.76 106.597C1248.76 107.655 1248.58 108.441 1248.22 108.956C1247.85 109.47 1247.29 109.727 1246.52 109.727C1245.76 109.727 1245.2 109.477 1244.84 108.975C1244.47 108.471 1244.28 107.719 1244.27 106.719V105.513C1244.27 104.468 1244.45 103.692 1244.81 103.184C1245.17 102.676 1245.74 102.422 1246.51 102.422C1247.28 102.422 1247.84 102.668 1248.2 103.16C1248.56 103.648 1248.75 104.403 1248.76 105.425V106.597ZM1247.85 105.362C1247.85 104.597 1247.75 104.04 1247.53 103.692C1247.32 103.34 1246.98 103.165 1246.51 103.165C1246.05 103.165 1245.71 103.339 1245.5 103.687C1245.29 104.035 1245.18 104.571 1245.17 105.294V106.739C1245.17 107.507 1245.28 108.075 1245.51 108.443C1245.73 108.808 1246.07 108.99 1246.52 108.99C1246.97 108.99 1247.3 108.817 1247.51 108.472C1247.73 108.127 1247.84 107.584 1247.85 106.841V105.362ZM1162.05 118.597C1162.05 119.655 1161.87 120.441 1161.51 120.956C1161.15 121.47 1160.58 121.727 1159.81 121.727C1159.05 121.727 1158.49 121.477 1158.13 120.975C1157.76 120.471 1157.57 119.719 1157.56 118.719V117.513C1157.56 116.468 1157.74 115.692 1158.1 115.184C1158.46 114.676 1159.03 114.422 1159.8 114.422C1160.57 114.422 1161.13 114.668 1161.49 115.16C1161.85 115.648 1162.04 116.403 1162.05 117.425V118.597ZM1161.15 117.362C1161.15 116.597 1161.04 116.04 1160.82 115.692C1160.61 115.34 1160.27 115.165 1159.8 115.165C1159.34 115.165 1159 115.339 1158.79 115.687C1158.58 116.035 1158.47 116.571 1158.46 117.294V118.739C1158.46 119.507 1158.58 120.075 1158.8 120.443C1159.02 120.808 1159.36 120.99 1159.81 120.99C1160.26 120.99 1160.59 120.817 1160.8 120.472C1161.02 120.127 1161.14 119.584 1161.15 118.841V117.362ZM1166.17 121.63H1165.27V115.609L1163.45 116.278V115.458L1166.03 114.486H1166.17V121.63ZM1171.79 121.63H1170.88V115.609L1169.06 116.278V115.458L1171.65 114.486H1171.79V121.63ZM1178.89 118.597C1178.89 119.655 1178.71 120.441 1178.35 120.956C1177.99 121.47 1177.43 121.727 1176.66 121.727C1175.9 121.727 1175.34 121.477 1174.97 120.975C1174.61 120.471 1174.42 119.719 1174.41 118.719V117.513C1174.41 116.468 1174.59 115.692 1174.95 115.184C1175.31 114.676 1175.88 114.422 1176.65 114.422C1177.41 114.422 1177.98 114.668 1178.34 115.16C1178.7 115.648 1178.88 116.403 1178.89 117.425V118.597ZM1177.99 117.362C1177.99 116.597 1177.88 116.04 1177.67 115.692C1177.45 115.34 1177.11 115.165 1176.65 115.165C1176.19 115.165 1175.85 115.339 1175.64 115.687C1175.43 116.035 1175.32 116.571 1175.31 117.294V118.739C1175.31 119.507 1175.42 120.075 1175.64 120.443C1175.87 120.808 1176.21 120.99 1176.66 120.99C1177.1 120.99 1177.43 120.817 1177.65 120.472C1177.87 120.127 1177.98 119.584 1177.99 118.841V117.362ZM1183.02 121.63H1182.11V115.609L1180.29 116.278V115.458L1182.88 114.486H1183.02V121.63ZM1188.64 121.63H1187.73V115.609L1185.91 116.278V115.458L1188.49 114.486H1188.64V121.63ZM1194.25 121.63H1193.34V115.609L1191.52 116.278V115.458L1194.11 114.486H1194.25V121.63ZM1199.87 121.63H1198.96V115.609L1197.14 116.278V115.458L1199.72 114.486H1199.87V121.63ZM1209.45 118.597C1209.45 119.655 1209.27 120.441 1208.91 120.956C1208.55 121.47 1207.98 121.727 1207.21 121.727C1206.46 121.727 1205.89 121.477 1205.53 120.975C1205.17 120.471 1204.98 119.719 1204.96 118.719V117.513C1204.96 116.468 1205.14 115.692 1205.51 115.184C1205.87 114.676 1206.43 114.422 1207.21 114.422C1207.97 114.422 1208.53 114.668 1208.89 115.16C1209.26 115.648 1209.44 116.403 1209.45 117.425V118.597ZM1208.55 117.362C1208.55 116.597 1208.44 116.04 1208.23 115.692C1208.01 115.34 1207.67 115.165 1207.21 115.165C1206.74 115.165 1206.41 115.339 1206.19 115.687C1205.98 116.035 1205.87 116.571 1205.87 117.294V118.739C1205.87 119.507 1205.98 120.075 1206.2 120.443C1206.42 120.808 1206.76 120.99 1207.21 120.99C1207.66 120.99 1207.99 120.817 1208.21 120.472C1208.42 120.127 1208.54 119.584 1208.55 118.841V117.362ZM1213.58 121.63H1212.67V115.609L1210.85 116.278V115.458L1213.44 114.486H1213.58V121.63ZM1219.19 121.63H1218.28V115.609L1216.46 116.278V115.458L1219.05 114.486H1219.19V121.63ZM1224.81 121.63H1223.9V115.609L1222.08 116.278V115.458L1224.67 114.486H1224.81V121.63ZM1231.91 118.597C1231.91 119.655 1231.73 120.441 1231.37 120.956C1231.01 121.47 1230.44 121.727 1229.68 121.727C1228.92 121.727 1228.36 121.477 1227.99 120.975C1227.63 120.471 1227.44 119.719 1227.42 118.719V117.513C1227.42 116.468 1227.61 115.692 1227.97 115.184C1228.33 114.676 1228.89 114.422 1229.67 114.422C1230.43 114.422 1230.99 114.668 1231.36 115.16C1231.72 115.648 1231.9 116.403 1231.91 117.425V118.597ZM1231.01 117.362C1231.01 116.597 1230.9 116.04 1230.69 115.692C1230.47 115.34 1230.13 115.165 1229.67 115.165C1229.2 115.165 1228.87 115.339 1228.66 115.687C1228.44 116.035 1228.33 116.571 1228.33 117.294V118.739C1228.33 119.507 1228.44 120.075 1228.66 120.443C1228.88 120.808 1229.22 120.99 1229.68 120.99C1230.12 120.99 1230.45 120.817 1230.67 120.472C1230.89 120.127 1231 119.584 1231.01 118.841V117.362ZM1236.04 121.63H1235.13V115.609L1233.31 116.278V115.458L1235.9 114.486H1236.04V121.63ZM1241.65 121.63H1240.75V115.609L1238.92 116.278V115.458L1241.51 114.486H1241.65V121.63ZM1248.76 118.597C1248.76 119.655 1248.58 120.441 1248.22 120.956C1247.85 121.47 1247.29 121.727 1246.52 121.727C1245.76 121.727 1245.2 121.477 1244.84 120.975C1244.47 120.471 1244.28 119.719 1244.27 118.719V117.513C1244.27 116.468 1244.45 115.692 1244.81 115.184C1245.17 114.676 1245.74 114.422 1246.51 114.422C1247.28 114.422 1247.84 114.668 1248.2 115.16C1248.56 115.648 1248.75 116.403 1248.76 117.425V118.597ZM1247.85 117.362C1247.85 116.597 1247.75 116.04 1247.53 115.692C1247.32 115.34 1246.98 115.165 1246.51 115.165C1246.05 115.165 1245.71 115.339 1245.5 115.687C1245.29 116.035 1245.18 116.571 1245.17 117.294V118.739C1245.17 119.507 1245.28 120.075 1245.51 120.443C1245.73 120.808 1246.07 120.99 1246.52 120.99C1246.97 120.99 1247.3 120.817 1247.51 120.472C1247.73 120.127 1247.84 119.584 1247.85 118.841V117.362ZM1162.05 130.597C1162.05 131.655 1161.87 132.441 1161.51 132.956C1161.15 133.47 1160.58 133.727 1159.81 133.727C1159.05 133.727 1158.49 133.477 1158.13 132.975C1157.76 132.471 1157.57 131.719 1157.56 130.719V129.513C1157.56 128.468 1157.74 127.692 1158.1 127.184C1158.46 126.676 1159.03 126.422 1159.8 126.422C1160.57 126.422 1161.13 126.668 1161.49 127.16C1161.85 127.648 1162.04 128.403 1162.05 129.425V130.597ZM1161.15 129.362C1161.15 128.597 1161.04 128.04 1160.82 127.692C1160.61 127.34 1160.27 127.165 1159.8 127.165C1159.34 127.165 1159 127.339 1158.79 127.687C1158.58 128.035 1158.47 128.571 1158.46 129.294V130.739C1158.46 131.507 1158.58 132.075 1158.8 132.443C1159.02 132.808 1159.36 132.99 1159.81 132.99C1160.26 132.99 1160.59 132.817 1160.8 132.472C1161.02 132.127 1161.14 131.584 1161.15 130.841V129.362ZM1166.17 133.63H1165.27V127.609L1163.45 128.278V127.458L1166.03 126.486H1166.17V133.63ZM1171.79 133.63H1170.88V127.609L1169.06 128.278V127.458L1171.65 126.486H1171.79V133.63ZM1178.89 130.597C1178.89 131.655 1178.71 132.441 1178.35 132.956C1177.99 133.47 1177.43 133.727 1176.66 133.727C1175.9 133.727 1175.34 133.477 1174.97 132.975C1174.61 132.471 1174.42 131.719 1174.41 130.719V129.513C1174.41 128.468 1174.59 127.692 1174.95 127.184C1175.31 126.676 1175.88 126.422 1176.65 126.422C1177.41 126.422 1177.98 126.668 1178.34 127.16C1178.7 127.648 1178.88 128.403 1178.89 129.425V130.597ZM1177.99 129.362C1177.99 128.597 1177.88 128.04 1177.67 127.692C1177.45 127.34 1177.11 127.165 1176.65 127.165C1176.19 127.165 1175.85 127.339 1175.64 127.687C1175.43 128.035 1175.32 128.571 1175.31 129.294V130.739C1175.31 131.507 1175.42 132.075 1175.64 132.443C1175.87 132.808 1176.21 132.99 1176.66 132.99C1177.1 132.99 1177.43 132.817 1177.65 132.472C1177.87 132.127 1177.98 131.584 1177.99 130.841V129.362ZM1184.51 130.597C1184.51 131.655 1184.33 132.441 1183.97 132.956C1183.61 133.47 1183.04 133.727 1182.27 133.727C1181.51 133.727 1180.95 133.477 1180.59 132.975C1180.22 132.471 1180.04 131.719 1180.02 130.719V129.513C1180.02 128.468 1180.2 127.692 1180.56 127.184C1180.93 126.676 1181.49 126.422 1182.26 126.422C1183.03 126.422 1183.59 126.668 1183.95 127.16C1184.31 127.648 1184.5 128.403 1184.51 129.425V130.597ZM1183.61 129.362C1183.61 128.597 1183.5 128.04 1183.28 127.692C1183.07 127.34 1182.73 127.165 1182.26 127.165C1181.8 127.165 1181.46 127.339 1181.25 127.687C1181.04 128.035 1180.93 128.571 1180.93 129.294V130.739C1180.93 131.507 1181.04 132.075 1181.26 132.443C1181.48 132.808 1181.82 132.99 1182.27 132.99C1182.72 132.99 1183.05 132.817 1183.26 132.472C1183.48 132.127 1183.6 131.584 1183.61 130.841V129.362ZM1188.64 133.63H1187.73V127.609L1185.91 128.278V127.458L1188.49 126.486H1188.64V133.63ZM1195.74 130.597C1195.74 131.655 1195.56 132.441 1195.2 132.956C1194.84 133.47 1194.27 133.727 1193.5 133.727C1192.75 133.727 1192.18 133.477 1191.82 132.975C1191.45 132.471 1191.27 131.719 1191.25 130.719V129.513C1191.25 128.468 1191.43 127.692 1191.79 127.184C1192.16 126.676 1192.72 126.422 1193.49 126.422C1194.26 126.422 1194.82 126.668 1195.18 127.16C1195.54 127.648 1195.73 128.403 1195.74 129.425V130.597ZM1194.84 129.362C1194.84 128.597 1194.73 128.04 1194.51 127.692C1194.3 127.34 1193.96 127.165 1193.49 127.165C1193.03 127.165 1192.69 127.339 1192.48 127.687C1192.27 128.035 1192.16 128.571 1192.16 129.294V130.739C1192.16 131.507 1192.27 132.075 1192.49 132.443C1192.71 132.808 1193.05 132.99 1193.5 132.99C1193.95 132.99 1194.28 132.817 1194.5 132.472C1194.71 132.127 1194.83 131.584 1194.84 130.841V129.362ZM1199.87 133.63H1198.96V127.609L1197.14 128.278V127.458L1199.72 126.486H1199.87V133.63ZM1209.45 130.597C1209.45 131.655 1209.27 132.441 1208.91 132.956C1208.55 133.47 1207.98 133.727 1207.21 133.727C1206.46 133.727 1205.89 133.477 1205.53 132.975C1205.17 132.471 1204.98 131.719 1204.96 130.719V129.513C1204.96 128.468 1205.14 127.692 1205.51 127.184C1205.87 126.676 1206.43 126.422 1207.21 126.422C1207.97 126.422 1208.53 126.668 1208.89 127.16C1209.26 127.648 1209.44 128.403 1209.45 129.425V130.597ZM1208.55 129.362C1208.55 128.597 1208.44 128.04 1208.23 127.692C1208.01 127.34 1207.67 127.165 1207.21 127.165C1206.74 127.165 1206.41 127.339 1206.19 127.687C1205.98 128.035 1205.87 128.571 1205.87 129.294V130.739C1205.87 131.507 1205.98 132.075 1206.2 132.443C1206.42 132.808 1206.76 132.99 1207.21 132.99C1207.66 132.99 1207.99 132.817 1208.21 132.472C1208.42 132.127 1208.54 131.584 1208.55 130.841V129.362ZM1213.58 133.63H1212.67V127.609L1210.85 128.278V127.458L1213.44 126.486H1213.58V133.63ZM1219.19 133.63H1218.28V127.609L1216.46 128.278V127.458L1219.05 126.486H1219.19V133.63ZM1224.81 133.63H1223.9V127.609L1222.08 128.278V127.458L1224.67 126.486H1224.81V133.63ZM1231.91 130.597C1231.91 131.655 1231.73 132.441 1231.37 132.956C1231.01 133.47 1230.44 133.727 1229.68 133.727C1228.92 133.727 1228.36 133.477 1227.99 132.975C1227.63 132.471 1227.44 131.719 1227.42 130.719V129.513C1227.42 128.468 1227.61 127.692 1227.97 127.184C1228.33 126.676 1228.89 126.422 1229.67 126.422C1230.43 126.422 1230.99 126.668 1231.36 127.16C1231.72 127.648 1231.9 128.403 1231.91 129.425V130.597ZM1231.01 129.362C1231.01 128.597 1230.9 128.04 1230.69 127.692C1230.47 127.34 1230.13 127.165 1229.67 127.165C1229.2 127.165 1228.87 127.339 1228.66 127.687C1228.44 128.035 1228.33 128.571 1228.33 129.294V130.739C1228.33 131.507 1228.44 132.075 1228.66 132.443C1228.88 132.808 1229.22 132.99 1229.68 132.99C1230.12 132.99 1230.45 132.817 1230.67 132.472C1230.89 132.127 1231 131.584 1231.01 130.841V129.362ZM1237.53 130.597C1237.53 131.655 1237.35 132.441 1236.99 132.956C1236.62 133.47 1236.06 133.727 1235.29 133.727C1234.53 133.727 1233.97 133.477 1233.61 132.975C1233.24 132.471 1233.05 131.719 1233.04 130.719V129.513C1233.04 128.468 1233.22 127.692 1233.58 127.184C1233.94 126.676 1234.51 126.422 1235.28 126.422C1236.05 126.422 1236.61 126.668 1236.97 127.16C1237.33 127.648 1237.52 128.403 1237.53 129.425V130.597ZM1236.62 129.362C1236.62 128.597 1236.52 128.04 1236.3 127.692C1236.09 127.34 1235.75 127.165 1235.28 127.165C1234.82 127.165 1234.48 127.339 1234.27 127.687C1234.06 128.035 1233.95 128.571 1233.94 129.294V130.739C1233.94 131.507 1234.05 132.075 1234.28 132.443C1234.5 132.808 1234.84 132.99 1235.29 132.99C1235.74 132.99 1236.07 132.817 1236.28 132.472C1236.5 132.127 1236.61 131.584 1236.62 130.841V129.362ZM1241.65 133.63H1240.75V127.609L1238.92 128.278V127.458L1241.51 126.486H1241.65V133.63ZM1248.76 130.597C1248.76 131.655 1248.58 132.441 1248.22 132.956C1247.85 133.47 1247.29 133.727 1246.52 133.727C1245.76 133.727 1245.2 133.477 1244.84 132.975C1244.47 132.471 1244.28 131.719 1244.27 130.719V129.513C1244.27 128.468 1244.45 127.692 1244.81 127.184C1245.17 126.676 1245.74 126.422 1246.51 126.422C1247.28 126.422 1247.84 126.668 1248.2 127.16C1248.56 127.648 1248.75 128.403 1248.76 129.425V130.597ZM1247.85 129.362C1247.85 128.597 1247.75 128.04 1247.53 127.692C1247.32 127.34 1246.98 127.165 1246.51 127.165C1246.05 127.165 1245.71 127.339 1245.5 127.687C1245.29 128.035 1245.18 128.571 1245.17 129.294V130.739C1245.17 131.507 1245.28 132.075 1245.51 132.443C1245.73 132.808 1246.07 132.99 1246.52 132.99C1246.97 132.99 1247.3 132.817 1247.51 132.472C1247.73 132.127 1247.84 131.584 1247.85 130.841V129.362Z" fill="#E1E0E0" fill-opacity="0.4"/>
</svg>
